<?xml version="1.0" standalone="no"?>
<!DOCTYPE svg PUBLIC "-//W3C//DTD SVG 20010904//EN"
 "http://www.w3.org/TR/2001/REC-SVG-20010904/DTD/svg10.dtd">
<svg version="1.0" xmlns="http://www.w3.org/2000/svg"
 width="257.000000pt" height="257.000000pt" viewBox="0 0 257.000000 257.000000"
 preserveAspectRatio="xMidYMid meet">
<metadata>
Created by potrace 1.15, written by Peter Selinger 2001-2017
</metadata>
<g transform="translate(0.000000,257.000000) scale(0.100000,-0.100000)"
fill="#000000" stroke="none">
<path d="M150 2241 c0 -6 34 -54 76 -107 173 -222 375 -576 476 -834 112 -286
155 -433 143 -489 -3 -14 -1 -33 5 -41 7 -10 10 9 10 65 0 90 -25 200 -65 290
-14 33 -42 103 -62 155 -47 124 -98 237 -118 256 -8 8 -15 23 -15 32 0 9 -14
42 -31 72 -18 30 -50 91 -72 135 -23 44 -45 82 -49 83 -4 2 -8 10 -8 18 0 8
-5 14 -10 14 -6 0 -15 11 -20 25 -11 29 -62 109 -72 113 -5 2 -8 8 -8 14 0 18
-110 156 -146 183 -19 14 -34 21 -34 16z"/>
<path d="M2374 2212 c-43 -39 -109 -120 -109 -134 0 -5 -7 -13 -15 -18 -8 -5
-12 -10 -8 -10 5 0 -8 -21 -28 -47 -20 -27 -41 -59 -47 -73 -6 -14 -25 -45
-43 -70 -17 -25 -46 -74 -63 -110 -17 -36 -45 -87 -61 -115 -16 -27 -30 -57
-30 -65 0 -9 -9 -27 -21 -41 -26 -33 -110 -223 -158 -360 -64 -179 -81 -327
-57 -514 8 -66 18 -128 22 -138 3 -9 3 -33 0 -52 l-7 -35 -49 34 -48 33 -94
-6 c-119 -8 -426 -8 -545 0 l-92 6 -51 -34 -50 -34 0 31 c0 16 -4 30 -10 30
-5 0 -10 -13 -10 -29 0 -16 -3 -36 -6 -44 -3 -8 6 -27 19 -42 23 -27 28 -28
183 -41 271 -22 690 -13 744 16 37 20 39 39 19 220 -40 357 8 552 255 1033
106 206 249 428 368 570 69 84 65 105 -8 39z"/>
<path d="M1688 1954 c-5 -4 -8 -15 -8 -25 0 -55 -24 -117 -60 -158 -21 -24
-43 -40 -48 -37 -6 3 -46 -8 -89 -26 -62 -25 -96 -32 -170 -36 -102 -5 -159 6
-241 44 -31 15 -61 22 -72 19 -12 -4 -20 -2 -20 4 0 6 -7 11 -15 11 -8 0 -15
6 -15 13 0 8 -9 22 -20 32 -11 10 -19 23 -18 29 0 6 -2 18 -6 26 -3 8 -11 35
-16 60 -9 45 -9 45 -5 -14 8 -119 99 -236 232 -299 63 -30 76 -32 173 -32 99
0 110 2 171 32 75 37 142 93 182 150 36 52 76 239 45 207z"/>
</g>
</svg>
